<svg width="57" height="79" viewBox="0 0 57 79" fill="none" xmlns="http://www.w3.org/2000/svg">
<path d="M41.4343 49.8979L41.6814 48.7641C42.794 43.659 35.9329 38.1295 25.7205 35.9038C15.5081 33.6782 6.96829 35.8513 5.85569 40.9564L4.08122 49.0987C3.1545 53.3509 7.76142 57.8944 15.2252 60.5808L14.9794 61.7085C13.8668 66.8136 20.728 72.3431 30.9403 74.5688C41.1527 76.7944 49.6925 74.6213 50.8051 69.5162L52.5796 61.374C53.4979 57.1604 49.0608 52.6496 41.4343 49.8979ZM49.3227 60.6642C48.7363 63.3552 41.8131 64.9978 33.4246 63.1697C32.6654 63.0042 31.918 62.8136 31.1856 62.6028C35.925 61.9598 39.2415 59.9597 39.907 56.9063L40.717 53.1894C46.5998 55.4203 49.7544 58.6836 49.3227 60.6642ZM15.9443 57.2811L16.9996 52.4386C18.5735 53.0026 20.1826 53.463 21.8166 53.8167C23.4497 54.175 25.1044 54.426 26.7703 54.5679L25.7149 59.4105C24.0454 59.297 22.3866 59.0602 20.752 58.7021C19.1166 58.3475 17.5096 57.8726 15.9443 57.2811ZM37.2743 53.3325L36.6501 56.1966C36.2779 57.9044 33.3521 59.1879 29.1218 59.4323L30.1585 54.6752C32.9252 54.6108 35.3568 54.1471 37.2743 53.3325ZM25.0107 39.1607C33.3992 40.9889 39.011 45.3633 38.4246 48.0543C37.8381 50.7453 30.915 52.388 22.5264 50.5598C14.1379 48.7317 8.52612 44.3572 9.11258 41.6662C9.69904 38.9752 16.6222 37.3326 25.0107 39.1607ZM7.3381 49.8084L7.96228 46.9444C9.36688 48.483 11.385 49.9164 13.8741 51.1262L12.8373 55.8833C9.09233 53.9008 6.96591 51.5163 7.3381 49.8084ZM18.2363 62.4183L18.4213 61.5694C18.9522 61.7065 19.4905 61.8387 20.0422 61.9589C20.832 62.1311 21.6092 62.2727 22.3762 62.393C23.1518 62.8774 23.9529 63.3197 24.7762 63.7177L23.7355 68.4932C19.9905 66.5107 17.8641 64.1261 18.2363 62.4183ZM26.8424 69.891L27.9005 65.0362C29.4724 65.6068 31.0808 66.0713 32.7148 66.4265C34.3479 66.7849 36.0026 67.0358 37.6685 67.1778L36.6131 72.0203C33.27 71.7893 29.9785 71.0719 26.8424 69.891ZM40.0199 72.0421L41.0567 67.285C43.8234 67.2206 46.255 66.7569 48.1724 65.9424L47.5483 68.8064C47.1761 70.5142 44.2502 71.7977 40.0199 72.0421Z" fill="#2E7602"/>
<path d="M38.8541 8.05575L38.6739 7.38322C37.8625 4.35504 32.6827 3.29452 26.6252 4.91764C20.5676 6.54076 16.6121 10.0491 17.4235 13.0772L18.7176 17.9069C19.3934 20.4291 23.0999 21.5842 27.8187 20.963L27.9979 21.6319C28.8093 24.66 33.989 25.7206 40.0466 24.0975C46.1042 22.4743 50.0597 18.966 49.2483 15.9379L47.9542 11.1082C47.2845 8.60889 43.6776 7.42458 38.8541 8.05575ZM46.0223 11.6259C46.45 13.2221 43.2106 16.0027 38.2349 17.336C37.7845 17.4566 37.3336 17.5607 36.8851 17.6498C39.2352 16.0029 40.4533 14.024 39.968 12.2129L39.3772 10.0081C43.1277 9.57905 45.7076 10.4511 46.0223 11.6259ZM27.2943 19.0058L26.5246 16.1333C27.519 16.0011 28.5036 15.8038 29.4722 15.5428C30.4415 15.2846 31.3929 14.9631 32.3201 14.5804L33.0898 17.4528C32.1684 17.8517 31.2187 18.1818 30.2487 18.4406C29.2791 18.7015 28.2916 18.8904 27.2943 19.0058ZM37.5809 11.0317L38.0361 12.7305C38.3076 13.7435 37.1007 15.2329 34.9123 16.5271L34.1562 13.7054C35.6137 12.9098 36.7827 11.9935 37.5809 11.0317ZM27.1428 6.84949C32.1185 5.51625 36.3143 6.30467 36.742 7.90086C37.1697 9.49705 33.9303 12.2777 28.9546 13.611C23.9788 14.9442 19.7831 14.1558 19.3554 12.5596C18.9277 10.9634 22.1671 8.18273 27.1428 6.84949ZM20.6495 17.3892L20.1943 15.6904C21.3665 16.1243 22.837 16.3333 24.497 16.2936L25.2531 19.1153C22.7108 19.0886 20.9209 18.4022 20.6495 17.3892ZM29.9298 21.1142L29.7949 20.6107C30.1156 20.5377 30.4391 20.4601 30.7663 20.3725C31.2348 20.2469 31.6882 20.1086 32.1302 19.9617C32.677 20.0066 33.2259 20.022 33.7744 20.0077L34.5334 22.8403C31.9911 22.8136 30.2012 22.1272 29.9298 21.1142ZM36.5746 22.7308L35.803 19.8511C36.7981 19.7228 37.7835 19.528 38.7525 19.2678C39.7218 19.0096 40.6732 18.6881 41.6005 18.3054L42.3701 21.1778C40.524 21.9745 38.5716 22.4976 36.5746 22.7308ZM44.1926 20.2521L43.4366 17.4304C44.8941 16.6348 46.063 15.7185 46.8612 14.7567L47.3164 16.4555C47.5879 17.4685 46.381 18.9579 44.1926 20.2521Z" fill="#2E7602"/>
</svg>
